<svg width="1227" height="301" viewBox="0 0 1227 301" fill="none" xmlns="http://www.w3.org/2000/svg">
<g clip-path="url(#clip0_2002_1524)">
<path d="M729 60.52V16.88H737.21V23.81H737.67C738.46 21.46 739.87 19.61 741.88 18.27C743.91 16.91 746.2 16.22 748.76 16.22C749.29 16.22 749.91 16.24 750.64 16.28C751.38 16.32 751.96 16.36 752.37 16.42V24.54C752.03 24.44 751.42 24.34 750.55 24.23C749.68 24.1 748.81 24.03 747.94 24.03C745.93 24.03 744.14 24.46 742.57 25.31C741.02 26.14 739.79 27.31 738.88 28.8C737.97 30.28 737.52 31.96 737.52 33.86V60.51H729.03L729 60.52ZM788.01 61.49C785.24 61.49 782.74 60.98 780.51 59.96C778.28 58.92 776.5 57.41 775.2 55.44C773.91 53.47 773.27 51.05 773.27 48.2C773.27 45.74 773.74 43.71 774.69 42.12C775.64 40.53 776.91 39.27 778.52 38.34C780.13 37.41 781.93 36.71 783.92 36.24C785.91 35.77 787.94 35.41 790 35.16C792.61 34.86 794.73 34.61 796.36 34.42C797.99 34.21 799.17 33.88 799.91 33.43C800.65 32.97 801.02 32.24 801.02 31.21V31.01C801.02 28.53 800.32 26.61 798.92 25.24C797.54 23.88 795.47 23.19 792.73 23.19C789.99 23.19 787.62 23.82 785.97 25.09C784.34 26.34 783.21 27.73 782.59 29.27L774.61 27.45C775.56 24.8 776.94 22.66 778.76 21.03C780.6 19.38 782.71 18.19 785.09 17.45C787.48 16.69 789.99 16.31 792.62 16.31C794.36 16.31 796.21 16.52 798.16 16.93C800.13 17.33 801.97 18.07 803.67 19.15C805.39 20.23 806.8 21.77 807.9 23.78C809 25.77 809.55 28.35 809.55 31.54V60.52H801.25V54.55H800.91C800.36 55.65 799.54 56.73 798.44 57.79C797.34 58.85 795.93 59.73 794.21 60.43C792.49 61.13 790.42 61.48 788.02 61.48L788.01 61.49ZM789.85 54.67C792.2 54.67 794.21 54.21 795.87 53.28C797.56 52.35 798.83 51.14 799.71 49.64C800.6 48.13 801.04 46.51 801.04 44.78V39.16C800.74 39.46 800.15 39.75 799.28 40.01C798.43 40.26 797.45 40.47 796.35 40.66C795.25 40.83 794.18 40.99 793.14 41.14C792.1 41.27 791.23 41.39 790.53 41.48C788.88 41.69 787.38 42.04 786.01 42.53C784.67 43.02 783.59 43.73 782.77 44.66C781.97 45.57 781.58 46.78 781.58 48.3C781.58 50.4 782.36 51.99 783.91 53.07C785.46 54.13 787.44 54.66 789.85 54.66V54.67ZM853.19 61.37C849.67 61.37 846.52 60.47 843.76 58.67C841.01 56.85 838.85 54.27 837.28 50.91C835.73 47.54 834.95 43.49 834.95 38.78C834.95 34.07 835.74 30.03 837.31 26.68C838.9 23.33 841.08 20.76 843.84 18.98C846.61 17.2 849.74 16.31 853.24 16.31C855.95 16.31 858.13 16.76 859.77 17.67C861.44 18.56 862.72 19.6 863.63 20.79C864.56 21.98 865.28 23.03 865.79 23.94H866.3V2.31999H874.79V60.5H866.5V53.71H865.79C865.28 54.64 864.54 55.7 863.57 56.89C862.62 58.08 861.32 59.13 859.65 60.01C857.98 60.9 855.82 61.34 853.17 61.34L853.19 61.37ZM855.07 54.13C857.51 54.13 859.58 53.49 861.26 52.2C862.96 50.89 864.25 49.09 865.12 46.77C866.01 44.46 866.46 41.77 866.46 38.7C866.46 35.63 866.02 33.02 865.15 30.74C864.28 28.47 863 26.7 861.32 25.43C859.63 24.16 857.55 23.53 855.07 23.53C852.59 23.53 850.38 24.19 848.68 25.52C846.97 26.85 845.69 28.65 844.82 30.95C843.97 33.24 843.54 35.83 843.54 38.71C843.54 41.59 843.98 44.25 844.85 46.58C845.72 48.91 847.01 50.76 848.71 52.12C850.43 53.47 852.55 54.14 855.07 54.14V54.13ZM902.93 60.52V16.88H911.42V60.52H902.93ZM907.22 10.15C905.74 10.15 904.47 9.66 903.41 8.67C902.37 7.67 901.85 6.47 901.85 5.09C901.85 3.71 902.37 2.48999 903.41 1.50999C904.47 0.509995 905.74 0 907.22 0C908.7 0 909.96 0.499995 911 1.50999C912.06 2.49999 912.59 3.69 912.59 5.09C912.59 6.49 912.06 7.67 911 8.67C909.96 9.66 908.7 10.15 907.22 10.15ZM957.24 61.4C953.15 61.4 949.58 60.46 946.53 58.59C943.48 56.72 941.11 54.09 939.43 50.72C937.74 47.35 936.9 43.41 936.9 38.9C936.9 34.39 937.74 30.41 939.43 27.02C941.11 23.63 943.48 21 946.53 19.12C949.58 17.24 953.15 16.31 957.24 16.31C961.33 16.31 964.9 17.25 967.95 19.12C971 21 973.37 23.63 975.05 27.02C976.73 30.41 977.58 34.37 977.58 38.9C977.58 43.43 976.74 47.35 975.05 50.72C973.36 54.09 971 56.71 967.95 58.59C964.9 60.47 961.33 61.4 957.24 61.4ZM957.27 54.27C959.92 54.27 962.12 53.57 963.86 52.17C965.6 50.77 966.89 48.9 967.72 46.57C968.57 44.24 969 41.67 969 38.87C969 36.07 968.57 33.53 967.72 31.2C966.89 28.85 965.6 26.97 963.86 25.55C962.12 24.13 959.92 23.42 957.27 23.42C954.62 23.42 952.38 24.13 950.62 25.55C948.88 26.97 947.58 28.85 946.73 31.2C945.9 33.53 945.48 36.09 945.48 38.87C945.48 41.65 945.9 44.24 946.73 46.57C947.58 48.9 948.88 50.77 950.62 52.17C952.38 53.57 954.6 54.27 957.27 54.27ZM1008.66 61.06C1007.11 61.06 1005.77 60.51 1004.65 59.41C1003.54 58.29 1002.98 56.95 1002.98 55.38C1002.98 53.81 1003.54 52.5 1004.65 51.4C1005.77 50.28 1007.11 49.72 1008.66 49.72C1010.21 49.72 1011.55 50.28 1012.67 51.4C1013.78 52.5 1014.34 53.82 1014.34 55.38C1014.34 56.42 1014.08 57.38 1013.55 58.25C1013.03 59.1 1012.35 59.78 1011.5 60.3C1010.65 60.81 1009.7 61.07 1008.66 61.07V61.06ZM1060.1 61.4C1055.88 61.4 1052.24 60.44 1049.19 58.53C1046.16 56.6 1043.83 53.94 1042.2 50.55C1040.57 47.16 1039.76 43.28 1039.76 38.9C1039.76 34.52 1040.59 30.56 1042.26 27.17C1043.93 23.76 1046.27 21.1 1049.3 19.19C1052.33 17.28 1055.9 16.32 1060.01 16.32C1063.33 16.32 1066.28 16.94 1068.88 18.17C1071.47 19.38 1073.57 21.09 1075.16 23.28C1076.77 25.48 1077.72 28.04 1078.03 30.98H1069.76C1069.3 28.93 1068.26 27.17 1066.63 25.7C1065.02 24.22 1062.86 23.48 1060.16 23.48C1057.79 23.48 1055.72 24.1 1053.93 25.36C1052.17 26.59 1050.8 28.35 1049.82 30.64C1048.83 32.91 1048.34 35.6 1048.34 38.71C1048.34 41.82 1048.82 44.64 1049.79 46.95C1050.75 49.26 1052.12 51.05 1053.88 52.32C1055.66 53.59 1057.75 54.22 1060.16 54.22C1061.77 54.22 1063.22 53.93 1064.53 53.34C1065.86 52.73 1066.97 51.87 1067.86 50.75C1068.76 49.63 1069.4 48.29 1069.76 46.72H1078.03C1077.72 49.54 1076.8 52.06 1075.27 54.28C1073.74 56.5 1071.68 58.24 1069.11 59.51C1066.55 60.78 1063.55 61.41 1060.1 61.41V61.4ZM1121.49 61.4C1117.4 61.4 1113.83 60.46 1110.78 58.59C1107.73 56.72 1105.36 54.09 1103.68 50.72C1101.99 47.35 1101.15 43.41 1101.15 38.9C1101.15 34.39 1101.99 30.41 1103.68 27.02C1105.36 23.63 1107.73 21 1110.78 19.12C1113.83 17.24 1117.4 16.31 1121.49 16.31C1125.58 16.31 1129.15 17.25 1132.2 19.12C1135.25 21 1137.62 23.63 1139.3 27.02C1140.99 30.41 1141.83 34.37 1141.83 38.9C1141.83 43.43 1140.99 47.35 1139.3 50.72C1137.62 54.09 1135.25 56.71 1132.2 58.59C1129.15 60.47 1125.58 61.4 1121.49 61.4ZM1121.52 54.27C1124.17 54.27 1126.37 53.57 1128.11 52.17C1129.85 50.77 1131.14 48.9 1131.97 46.57C1132.83 44.24 1133.25 41.67 1133.25 38.87C1133.25 36.07 1132.83 33.53 1131.97 31.2C1131.14 28.85 1129.85 26.97 1128.11 25.55C1126.37 24.13 1124.17 23.42 1121.52 23.42C1118.87 23.42 1116.63 24.13 1114.87 25.55C1113.13 26.97 1111.83 28.85 1110.98 31.2C1110.15 33.53 1109.73 36.09 1109.73 38.87C1109.73 41.65 1110.15 44.24 1110.98 46.57C1111.83 48.9 1113.13 50.77 1114.87 52.17C1116.63 53.57 1118.85 54.27 1121.52 54.27ZM1167.31 60.52V16.88H1175.47V23.98H1176.01C1176.92 21.58 1178.4 19.7 1180.47 18.36C1182.53 17 1185 16.31 1187.88 16.31C1190.76 16.31 1193.24 16.99 1195.21 18.36C1197.2 19.72 1198.67 21.6 1199.61 23.98H1200.07C1201.11 21.65 1202.77 19.79 1205.04 18.41C1207.31 17.01 1210.02 16.31 1213.17 16.31C1217.12 16.31 1220.35 17.55 1222.85 20.03C1225.37 22.51 1226.63 26.25 1226.63 31.25V60.51H1218.14V32.04C1218.14 29.09 1217.33 26.94 1215.72 25.62C1214.11 24.29 1212.19 23.63 1209.95 23.63C1207.19 23.63 1205.04 24.48 1203.51 26.19C1201.97 27.87 1201.2 30.04 1201.2 32.7V60.51H1192.74V31.5C1192.74 29.13 1192 27.23 1190.52 25.79C1189.05 24.35 1187.12 23.63 1184.76 23.63C1183.15 23.63 1181.66 24.06 1180.3 24.91C1178.95 25.74 1177.86 26.91 1177.03 28.4C1176.21 29.9 1175.81 31.63 1175.81 33.6V60.5H1167.31V60.52Z" fill="white"/>
<path d="M0 91H156.6V124.9H76.8L96.6 142.6V301H60.3V151L51.6 124.9H0V91ZM185.58 91H221.88V181.6L239.28 172H277.98L294.48 181.6V91H330.78V301H294.48V218.2L286.08 205.6H226.98L221.88 211.3V301H185.58V91ZM390.37 91H507.37V124.9H404.17L398.77 130.9V178H468.07V211.9H398.77V253.9L407.47 267.1H507.37V301H389.47L362.47 260.8V119.5L390.37 91Z" fill="white"/>
<path d="M548.35 91H650.35L693.55 155.5V272.5L666.25 301H548.35V91ZM584.65 124.9V267.4H651.25L657.25 261.4V162.4L631.75 124.9H584.65ZM753.43 91H843.73L870.13 131.2V272.2L842.83 301H752.83L725.53 260.8V119.8L753.43 91ZM761.83 254.2L770.53 267.1H828.13L833.83 261.1V137.8L825.13 124.9H767.23L761.83 130.9V254.2ZM905.41 91H941.71V94.3L973.21 141.4L1014.01 91H1050.31V301H1014.01V139.9L990.31 167.8V186.7H964.21V181.9L941.71 148.3V301H905.41V91ZM1109.9 91H1226.9V124.9H1123.7L1118.3 130.9V178H1187.6V211.9H1118.3V253.9L1127 267.1H1226.9V301H1109L1082 260.8V119.5L1109.9 91Z" fill="#EE0B0B"/>
</g>
<defs>
<clipPath id="clip0_2002_1524">
<rect width="1226.9" height="301" fill="white"/>
</clipPath>
</defs>
</svg>
